<?xml version="1.0" encoding="UTF-8"?>
<svg width="24px" height="24px" viewBox="0 0 24 24" version="1.1" xmlns="http://www.w3.org/2000/svg" xmlns:xlink="http://www.w3.org/1999/xlink">
    <title>eSIM-List</title>
    <defs>
        <path d="M10.6129834,20.3836363 L8.55439419,19.8028114 C8.33841106,19.7437445 8.21692055,19.5238842 8.27766581,19.3138684 L12.8841809,3.88427035 C12.9449262,3.67425455 13.1710335,3.55612067 13.3870166,3.61518761 L15.4456058,4.19601255 C15.6615889,4.25507949 15.7830794,4.47493978 15.7223342,4.68495557 L11.1158191,20.1145536 C11.0516991,20.3245694 10.8289665,20.4459848 10.6129834,20.3836363 L10.6129834,20.3836363 Z M6.76578392,16.7017969 L8.23379423,15.1791824 C8.38903211,15.018389 8.3789079,14.7624323 8.20679634,14.6147649 L5.14928521,11.999412 L8.20679634,9.38405901 C8.3789079,9.23639166 8.39240684,8.9804349 8.23379423,8.81964156 L6.76578392,7.29702704 C6.61392079,7.13951519 6.35744082,7.1296707 6.19207874,7.28061955 L1.32908367,11.7106403 C1.15697211,11.8648706 1.15697211,12.1306718 1.32908367,12.2849022 L6.19207874,16.7182044 C6.35744082,16.8691532 6.61392079,16.8625903 6.76578392,16.7017969 L6.76578392,16.7017969 Z M17.8079213,16.7214859 L22.6709163,12.2881837 C22.8430279,12.1339533 22.8430279,11.8681521 22.6709163,11.7139218 L17.8079213,7.27733806 C17.6459339,7.1296707 17.3894539,7.13623369 17.2342161,7.29374554 L15.7662058,8.81636006 C15.6109679,8.97715341 15.6210921,9.23311016 15.7932037,9.38077752 L18.8507148,11.999412 L15.7932037,14.6147649 C15.6210921,14.7624323 15.6075932,15.018389 15.7662058,15.1791824 L17.2342161,16.7017969 C17.3860792,16.8625903 17.6425592,16.8691532 17.8079213,16.7214859 Z" id="path-1"></path>
    </defs>
    <g id="物联网平台11.29" stroke="none" stroke-width="1" fill="none" fill-rule="evenodd">
        <g id="console设计规范" transform="translate(-297.000000, -488.000000)">
            <g id="code" transform="translate(297.000000, 488.000000)">
                <g id="Color">
                    <rect id="Purple" x="0" y="0" width="24" height="24"></rect>
                </g>
                <mask id="mask-2" fill="white">
                    <use xlink:href="#path-1"></use>
                </mask>
                <use id="Mask" fill="#5569D4" fill-rule="nonzero" xlink:href="#path-1"></use>
            </g>
        </g>
    </g>
</svg>