<?xml version="1.0" encoding="UTF-8"?>
<svg width="24px" height="24px" viewBox="0 0 24 24" version="1.1" xmlns="http://www.w3.org/2000/svg"
    xmlns:xlink="http://www.w3.org/1999/xlink">
    <title>编组 4</title>
    <g id="quasar-custom-svg" stroke="none" stroke-width="1" fill="none" fill-rule="evenodd">
        <g id="console设计规范" transform="translate(-73.000000, -488.000000)">
            <g id="编组备份" transform="translate(73.000000, 488.000000)">
                <rect id="矩形" x="0" y="0" width="24" height="24"></rect>
                <path
                    d="M19.7399,7.328 L15.2959,2.328 C15.1069,2.119 14.8379,2 14.5559,2 L6.5559,2 C5.1469,2 3.9999,3.122 3.9999,4.5 L3.9999,19.5 C3.9999,20.878 5.1469,22 6.5559,22 L17.4439,22 C18.8539,22 19.9999,20.878 19.9999,19.5 L19.9999,8 C19.9999,7.751 19.9069,7.512 19.7399,7.328 L19.7399,7.328 Z"
                    id="Path" fill="#3B4170" fill-rule="nonzero"></path>
                <path
                    d="M13.2,9.6 L13.2,19.2 L10.8,19.2 L10.8,12 L7.2,12 L7.2,9.6 L13.2,9.6 Z M16.8,16.8 L16.8,19.2 L14.4,19.2 L14.4,16.8 L16.8,16.8 Z M9.60000002,16.8 L9.60000002,19.2 L7.2,19.2 L7.2,16.8 L9.60000002,16.8 Z M16.8,13.2 L16.8,15.6 L14.4,15.6 L14.4,13.2 L16.8,13.2 Z M9.60000002,13.2 L9.60000002,15.6 L7.2,15.6 L7.2,13.2 L9.60000002,13.2 Z M16.8,9.6 L16.8,12 L14.4,12 L14.4,9.6 L16.8,9.6 Z"
                    id="形状结合" fill="#FFFFFF" fill-rule="nonzero"></path>
            </g>
        </g>
    </g>
</svg>