<?xml version="1.0" standalone="no"?><!DOCTYPE svg PUBLIC "-//W3C//DTD SVG 1.1//EN" "http://www.w3.org/Graphics/SVG/1.1/DTD/svg11.dtd"><svg t="1689991601854" class="icon" viewBox="0 0 1024 1024" version="1.1" xmlns="http://www.w3.org/2000/svg" p-id="2052" xmlns:xlink="http://www.w3.org/1999/xlink" width="200" height="200"><path d="M932.274 225.357L515.912 394.952 98.597 225.357 514.95 64.332l417.325 161.025z m-867.98 70.507l415.413 173.397V938.98c-33.028-14.595-67.318-29.87-102.9-45.74-30.48-13.32-64.948-28.241-103.374-44.762a42470.47 42470.47 0 0 0-115.761-49.566c-13.97-6.346-26.681-14.757-38.116-25.23-11.436-10.47-21.282-21.92-29.53-34.291-8.26-12.398-14.609-25.582-19.058-39.554-4.448-13.971-6.674-27.617-6.674-40.965V295.864z m893.7 0v361.109c0 16.494-3.173 32.554-9.523 48.1a210.84 210.84 0 0 1-24.306 43.813c-9.835 13.674-20.798 25.747-32.869 36.218-12.059 10.5-23.816 18.582-35.253 24.309-33.668 13.97-68.908 28.565-105.75 43.81a24702.636 24702.636 0 0 1-101.95 41.943c-36.206 15.221-71.77 29.843-106.712 43.814V469.26l416.363-173.396z m0 0" p-id="2053" fill="#ffffff"></path></svg>