<?xml version="1.0" encoding="UTF-8"?>
<svg width="20px" height="20px" viewBox="0 0 20 20" version="1.1" xmlns="http://www.w3.org/2000/svg"
    xmlns:xlink="http://www.w3.org/1999/xlink">

    <g id="quasar-custom-svg" stroke="none" stroke-width="1" fill="none" fill-rule="evenodd">
        <g id="eSIM-Group-Add-first-level-groups" transform="translate(-719.000000, -309.000000)">
            <g id="编组-14" transform="translate(361.000000, 203.000000)">
                <g id="编组-12" transform="translate(90.000000, 72.000000)">
                    <g id="编组-7备份-8" transform="translate(0.000000, 26.000000)">
                        <g id="编组" transform="translate(268.000000, 8.000000)">
                            <rect id="矩形" x="0" y="0" width="20" height="20"></rect>
                            <path
                                d="M10,1.66666667 C5.405,1.66666667 1.66666667,5.405 1.66666667,10 C1.66666667,14.595 5.405,18.3333333 10,18.3333333 C14.595,18.3333333 18.3333333,14.595 18.3333333,10 C18.3333333,5.405 14.595,1.66666667 10,1.66666667"
                                id="Path" fill="#EBECF0" fill-rule="nonzero"></path>
                            <path
                                d="M12.2558333,7.74416667 C11.93,7.41833333 11.4033333,7.41833333 11.0775,7.74416667 L10,8.82166667 L8.9225,7.74416667 C8.59666667,7.41833333 8.07,7.41833333 7.74416667,7.74416667 C7.41833333,8.07 7.41833333,8.59666667 7.74416667,8.9225 L8.82166667,10 L7.74416667,11.0775 C7.41833333,11.4033333 7.41833333,11.93 7.74416667,12.2558333 C7.90666667,12.4183333 8.12,12.5 8.33333333,12.5 C8.54666667,12.5 8.76,12.4183333 8.9225,12.2558333 L10,11.1783333 L11.0775,12.2558333 C11.24,12.4183333 11.4533333,12.5 11.6666667,12.5 C11.88,12.5 12.0933333,12.4183333 12.2558333,12.2558333 C12.5816667,11.93 12.5816667,11.4033333 12.2558333,11.0775 L11.1783333,10 L12.2558333,8.9225 C12.5816667,8.59666667 12.5816667,8.07 12.2558333,7.74416667"
                                id="Path" fill="#999DB4" fill-rule="nonzero"></path>
                        </g>
                    </g>
                </g>
            </g>
        </g>
    </g>
</svg>