<?xml version="1.0" encoding="UTF-8"?>
<svg width="28px" height="28px" viewBox="0 0 28 28" version="1.1" xmlns="http://www.w3.org/2000/svg" xmlns:xlink="http://www.w3.org/1999/xlink">
    <title>编组 9</title>
    <g id="物联网平台11.29" stroke="none" stroke-width="1" fill="none" fill-rule="evenodd">
        <g id="eSIM-List（Operater-import-2）-Plontron" transform="translate(-584.000000, -362.000000)">
            <g id="编组-9" transform="translate(584.000000, 362.000000)">
                <g id="编组-19" transform="translate(2.000000, 2.000000)">
                    <circle id="Oval" fill="#5569D4" cx="12" cy="12" r="12"></circle>
                    <path d="M17.9013895,7.37726107 C17.670218,7.14091298 17.2920832,7.14091298 17.0617137,7.37726107 L9.61289855,15.0003077 C9.38172705,15.236861 9.00359221,15.236861 8.77322269,15.0003077 L6.93828632,13.1234741 C6.70731531,12.887126 6.32897998,12.887126 6.09861045,13.1234741 L4.97322826,14.2758762 C4.74225725,14.5122243 4.74225725,14.8993674 4.97322826,15.1351 L8.77322269,19.0227389 C9.0043942,19.259087 9.38252903,19.259087 9.61289855,19.0227389 L19.0267717,9.38806634 C19.2577428,9.15171824 19.2577428,8.76457514 19.0267717,8.52802188 L17.9013895,7.37726107 Z" id="Page-1" fill="#F9F9F9"></path>
                </g>
            </g>
        </g>
    </g>
</svg>