<?xml version="1.0" encoding="UTF-8"?>
<svg width="36px" height="36px" viewBox="0 0 36 36" version="1.1" xmlns="http://www.w3.org/2000/svg" xmlns:xlink="http://www.w3.org/1999/xlink">
    <title>编组 12</title>
    <defs>
        <path d="M26.5,0 L5.5,0 C4.6715625,0 4,0.6715625 4,1.5 L4,2.5 C4,3.3284375 4.6715625,4 5.5,4 C5.5,9.6853125 8.6885,14.483375 13.052625,16 C8.6885,17.516625 5.5,22.3146875 5.5,28 C4.6715625,28 4,28.6715625 4,29.5 L4,30.5 C4,31.3284375 4.6715625,32 5.5,32 L26.5,32 C27.3284375,32 28,31.3284375 28,30.5 L28,29.5 C28,28.6715625 27.3284375,28 26.5,28 C26.5,22.3146875 23.3115,17.516625 18.947375,16 C23.3115,14.483375 26.5,9.6853125 26.5,4 C27.3284375,4 28,3.3284375 28,2.5 L28,1.5 C28,0.6715625 27.3284375,0 26.5,0 Z M21.807625,24 L10.1925,24 C11.2586875,21.0751875 13.4485,19 16,19 C18.5513125,19 20.741375,21.07475 21.807625,24 Z M21.8088125,8 L10.192375,8 C9.74925,6.78425 9.5,5.42175 9.5,4 L22.5,4 C22.5,5.4253125 22.2508125,6.7866875 21.8088125,8 L21.8088125,8 Z" id="path-1"></path>
    </defs>
    <g id="物联网平台11.29" stroke="none" stroke-width="1" fill="none" fill-rule="evenodd">
        <g id="eSIM-List（Operater-import-3）" transform="translate(-829.000000, -514.000000)">
            <g id="编组-13" transform="translate(270.000000, 124.000000)">
                <g id="编组-12" transform="translate(127.500000, 390.000000)">
                    <g id="编组-16" transform="translate(431.500000, 0.000000)">
                        <g id="hourglass-half" transform="translate(2.000000, 2.000000)">
                            <g id="Color">
                                <rect id="Purple" x="0" y="0" width="32" height="32"></rect>
                            </g>
                            <mask id="mask-2" fill="white">
                                <use xlink:href="#path-1"></use>
                            </mask>
                            <use id="Mask" fill="#999DB4" fill-rule="nonzero" xlink:href="#path-1"></use>
                        </g>
                    </g>
                </g>
            </g>
        </g>
    </g>
</svg>