<?xml version="1.0" encoding="UTF-8"?>
<svg width="24px" height="24px" viewBox="0 0 24 24" version="1.1" xmlns="http://www.w3.org/2000/svg" xmlns:xlink="http://www.w3.org/1999/xlink">
    <title>btn_Go to page</title>
    <g id="物联网平台11.29" stroke="none" stroke-width="1" fill="none" fill-rule="evenodd">
        <g id="eSIM-List" transform="translate(-1374.000000, -832.000000)" fill="#92929D">
            <g id="编组-5" transform="translate(939.000000, 828.000000)">
                <g id="btn_Go-to-page" transform="translate(316.000000, 0.000000)">
                    <g id="ic_Dropdown" transform="translate(119.000000, 4.000000)">
                        <path d="M9.8,14.1 L14.4666667,17.6 C14.6875806,17.7656854 14.7323521,18.0790861 14.5666667,18.3 C14.5382395,18.3379028 14.5045695,18.3715729 14.4666667,18.4 L9.8,21.9 C9.5790861,22.0656854 9.26568542,22.0209139 9.1,21.8 C9.03508894,21.7134519 9,21.6081851 9,21.5 L9,14.5 C9,14.2238576 9.22385763,14 9.5,14 C9.60818511,14 9.71345191,14.0350889 9.8,14.1 Z" id="Rectangle" transform="translate(12.000000, 18.000000) rotate(-270.000000) translate(-12.000000, -18.000000) "></path>
                        <path d="M9.8,2.1 L14.4666667,5.6 C14.6875806,5.76568542 14.7323521,6.0790861 14.5666667,6.3 C14.5382395,6.33790283 14.5045695,6.37157288 14.4666667,6.4 L9.8,9.9 C9.5790861,10.0656854 9.26568542,10.0209139 9.1,9.8 C9.03508894,9.71345191 9,9.60818511 9,9.5 L9,2.5 C9,2.22385763 9.22385763,2 9.5,2 C9.60818511,2 9.71345191,2.03508894 9.8,2.1 Z" id="Rectangle" transform="translate(12.000000, 6.000000) scale(1, -1) rotate(-270.000000) translate(-12.000000, -6.000000) "></path>
                    </g>
                </g>
            </g>
        </g>
    </g>
</svg>