<?xml version="1.0"?>
<!DOCTYPE svg PUBLIC "-//W3C//DTD SVG 1.1//EN" "http://www.w3.org/Graphics/SVG/1.1/DTD/svg11.dtd">
<svg t="1683363623058" class="icon" viewBox="0 0 1024 1024" version="1.1" xmlns="http://www.w3.org/2000/svg" p-id="1762"
  width="16" height="16">
  <path
    d="M512 1020.586667C231.154347 1020.586667 3.413333 792.84224 3.413333 512 3.413333 231.150933 231.154347 3.413333 512 3.413333s508.586667 227.741013 508.586667 508.586667c0 280.84224-227.7376 508.586667-508.586667 508.586667z m303.571627-341.486934l-332.997974-97.96608c0-0.3584 0.238933-0.713387 0.238934-1.071786V223.371947c0-24.640853-20.93056-44.4928-46.769494-44.4928-25.83552 0-46.76608 19.974827-46.76608 44.4928v356.683093c0 10.2912 4.304213 19.258027 10.287787 26.668373-5.502293 22.493867 7.417173 45.574827 30.976 52.514134l356.918613 105.02144c24.640853 7.17824 50.957653-5.98016 58.610347-29.422934 7.778987-23.56224-5.85728-48.564907-30.498133-55.73632z"
    fill="none" stroke="#fff" stroke-width="20" stroke-opacity="1" p-id="1763"></path>
</svg>