<?xml version="1.0" encoding="UTF-8"?>
<svg width="24px" height="24px" viewBox="0 0 24 24" version="1.1" xmlns="http://www.w3.org/2000/svg"
    xmlns:xlink="http://www.w3.org/1999/xlink">

    <g id="quasar-custom-svg" stroke="none" stroke-width="1" fill="none" fill-rule="evenodd">
        <g id="console设计规范" transform="translate(-869.000000, -488.000000)">
            <g id="编组-30" transform="translate(869.000000, 488.000000)">
                <rect id="Purple备份" x="0" y="0" width="24" height="24"></rect>
                <g id="编组" transform="translate(1.714314, 2.571429)" fill="#3B4170" fill-rule="nonzero">
                    <path
                        d="M0.308599164,6.58885714 C0.257530092,6.11008189 0.604254458,5.6805582 1.08302971,5.62948912 C1.11374374,5.62621298 1.14461018,5.62457143 1.17549845,5.62457143 L12.2014695,5.62457143 C12.7340298,5.62457143 13.1657552,6.05629685 13.1657552,6.58885714 C13.1657552,7.12141743 12.7340298,7.55314285 12.2014695,7.55314285 L1.38121157,7.55314285 C0.829751324,7.55314285 0.367089458,7.13720674 0.308599164,6.58885714 Z"
                        id="路径"></path>
                    <path
                        d="M12.2014418,13.2325714 L1.38121157,13.2325714 C0.829751324,13.2325714 0.367089458,12.8166353 0.308599164,12.2682857 C0.257530092,11.7895105 0.604254458,11.3599868 1.08302971,11.3089177 C1.11374374,11.3056416 1.14461018,11.304 1.17549845,11.304 L12.2014418,11.304 C12.7340021,11.304 13.1657275,11.7357254 13.1657275,12.2682857 C13.1657275,12.800846 12.7340021,13.2325714 12.2014418,13.2325714 Z"
                        id="路径"></path>
                    <path
                        d="M20.5713419,0.964285717 C20.5713419,1.49684601 20.1396165,1.92857143 19.6070562,1.92857143 L0.964285717,1.92857143 C0.431725421,1.92857143 6.52198262e-17,1.49684601 0,0.964285717 C-6.52198262e-17,0.431725421 0.431725421,3.19874344e-16 0.964285717,0 L19.6070562,0 C20.1396165,-2.09157608e-15 20.5713419,0.431725421 20.5713419,0.964285717 Z"
                        id="路径"></path>
                    <path
                        d="M0.964285717,16.9285714 L19.6071698,16.9285714 C20.13973,16.9285714 20.5714555,17.3602968 20.5714555,17.8928571 C20.5714555,18.4254174 20.13973,18.8571429 19.6071698,18.8571429 L0.964285717,18.8571429 C0.431725421,18.8571429 6.52198262e-17,18.4254174 0,17.8928571 C-6.52198262e-17,17.3602968 0.431725421,16.9285714 0.964285717,16.9285714 Z"
                        id="路径"></path>
                    <path
                        d="M15.7696547,9.61542857 C15.7148727,9.56917587 15.6832664,9.50112526 15.6832664,9.42942857 C15.6832664,9.35773188 15.7148727,9.28968127 15.7696547,9.24342857 L19.789632,5.94342857 C19.938774,5.82000001 20.1599157,5.92971429 20.1599157,6.12857143 L20.1599157,12.7251429 C20.1599157,12.924 19.9404883,13.0371428 19.789632,12.9137143 L15.7696547,9.61542857 Z"
                        id="路径"
                        transform="translate(17.921591, 9.428225) scale(-1, 1) translate(-17.921591, -9.428225) ">
                    </path>
                </g>
            </g>
        </g>
    </g>
</svg>