<?xml version="1.0" encoding="UTF-8"?>
<svg width="24px" height="24px" viewBox="0 0 24 24" version="1.1" xmlns="http://www.w3.org/2000/svg"
    xmlns:xlink="http://www.w3.org/1999/xlink">

    <defs>
        <path
            d="M20.25,22.5 L3.75,22.5 C2.50734375,22.5 1.5,21.4926562 1.5,20.25 L1.5,3.75 C1.5,2.50734375 2.50734375,1.5 3.75,1.5 L20.25,1.5 C21.4926562,1.5 22.5,2.50734375 22.5,3.75 L22.5,20.25 C22.5,21.4926562 21.4926562,22.5 20.25,22.5 Z M10.6553437,17.9034844 L19.2803438,9.27848438 C19.5732187,8.98560938 19.5732187,8.51071875 19.2803438,8.21784375 L18.2197031,7.15720312 C17.9268281,6.86432813 17.4519375,6.86428125 17.1590156,7.15720312 L10.125,14.1911719 L6.84098437,10.9071563 C6.54810937,10.6142813 6.07321875,10.6142813 5.78029687,10.9071563 L4.71965625,11.9677969 C4.42678125,12.2606719 4.42678125,12.7355625 4.71965625,13.0284375 L9.59465625,17.9034375 C9.88757812,18.1964063 10.3624219,18.1964063 10.6553438,17.9034844 L10.6553437,17.9034844 Z"
            id="path-1"></path>
    </defs>
    <g id="quasar-custom-svg" stroke="none" stroke-width="1" fill="none" fill-rule="evenodd">
        <g id="console设计规范" transform="translate(-553.000000, -488.000000)">
            <g id="check-square备份-2" transform="translate(553.000000, 488.000000)">
                <g id="Color">
                    <rect id="Purple" x="0" y="0" width="24" height="24"></rect>
                </g>
                <mask id="mask-2" fill="white">
                    <use xlink:href="#path-1"></use>
                </mask>
                <use id="Mask" fill="#5569D4" fill-rule="nonzero" xlink:href="#path-1"></use>
            </g>
        </g>
    </g>
</svg>