<?xml version="1.0" encoding="UTF-8"?>
<svg width="24px" height="24px" viewBox="0 0 24 24" version="1.1" xmlns="http://www.w3.org/2000/svg"
    xmlns:xlink="http://www.w3.org/1999/xlink">
    <title>编组 5</title>
    <defs>
        <path
            d="M22.2857143,10.8775236 C22.2857143,10.1314189 21.8085714,9.49693 21.1428571,9.26155854 L21.1428571,5.16462408 C21.1428571,3.90257317 20.1195,2.87946429 18.8571429,2.87946429 C16.53625,4.87897911 13.7846071,7.44978388 9.14285714,7.44978388 L3.42857143,7.44978388 C2.48178571,7.44978388 1.71428571,8.21709769 1.71428571,9.16365373 L1.71428571,12.5913934 C1.71428571,13.5379495 2.48178571,14.3052633 3.42857143,14.3052633 L4.97367857,14.3052633 C4.30432143,16.6136317 5.06221429,18.4606478 5.64560714,20.2838126 C5.70639286,20.4737665 5.83142857,20.6370483 5.99996429,20.743701 C6.74210714,21.2134084 8.44121429,21.3027439 9.349,20.9276207 C9.92207143,20.6907853 10.0618571,19.9484654 9.61764286,19.5159275 C8.95664286,18.8722979 8.54135714,18.198033 8.91067857,17.3429548 C8.9696434,17.2066706 8.95559731,17.0498092 8.87335714,16.926163 C8.29089286,16.044984 8.74546429,14.708594 9.89182143,14.3285076 C14.0858214,14.5868735 16.6639643,16.9860771 18.8571429,18.8755829 C20.1195,18.8755829 21.1428571,17.852474 21.1428571,16.5904231 L21.1428571,12.4934886 C21.8085714,12.2581171 22.2857143,11.6236282 22.2857143,10.8775236 Z M18.8571429,15.8711333 C16.9068214,14.2651301 14.3916786,12.5526528 10.8571429,12.1226857 L10.8571429,9.63232572 C14.3916786,9.20235862 16.9068214,7.489917 18.8571429,5.88387813 L18.8571429,15.8711333 Z"
            id="path-1"></path>
    </defs>
    <g id="quasar-custom-svg" stroke="none" stroke-width="1" fill="none" fill-rule="evenodd">
        <g id="Operator" transform="translate(-306.000000, -156.000000)">
            <g id="编组-9" transform="translate(286.000000, 140.000000)">
                <g id="bullhorn" transform="translate(20.000000, 16.000000)">
                    <g id="Color">
                        <rect id="Purple" x="0" y="0" width="24" height="24"></rect>
                    </g>
                    <mask id="mask-2" fill="white">
                        <use xlink:href="#path-1"></use>
                    </mask>
                    <use id="Mask" fill="#5569D4" fill-rule="nonzero" xlink:href="#path-1"></use>
                </g>
            </g>
        </g>
    </g>
</svg>