<?xml version="1.0" standalone="no"?>
<!DOCTYPE svg PUBLIC "-//W3C//DTD SVG 1.1//EN" "http://www.w3.org/Graphics/SVG/1.1/DTD/svg11.dtd"><svg t="1683363603360"
  class="icon" viewBox="0 0 1024 1024" version="1.1" xmlns="http://www.w3.org/2000/svg" p-id="1574"
  xmlns:xlink="http://www.w3.org/1999/xlink" width="20" height="20">
  <path
    d="M512 3.413333C231.154347 3.413333 3.413333 231.03488 3.413333 512c0 280.849067 227.741013 508.586667 508.586667 508.586667s508.586667-227.741013 508.586667-508.586667C1020.586667 231.03488 792.849067 3.413333 512 3.413333z m254.4128 564.688214h-270.083413c-5.741227 0-11.24352-1.201493-16.264534-3.232427-14.953813-6.331733-25.480533-21.159253-25.480533-38.393173V256.392533c0-23.084373 18.664107-41.741653 41.622187-41.741653a41.704107 41.704107 0 0 1 41.741653 41.741653v228.338347H766.293333a41.700693 41.700693 0 0 1 41.741654 41.741653c0.003413 22.975147-18.653867 41.629013-41.622187 41.629014z"
    fill="none" stroke="#fff" stroke-width="20" stroke-opacity="1" p-id="1575"></path>
</svg>