<?xml version="1.0" encoding="UTF-8"?>
<svg width="24px" height="24px" viewBox="0 0 24 24" version="1.1" xmlns="http://www.w3.org/2000/svg" xmlns:xlink="http://www.w3.org/1999/xlink">
    <title>console设计规范</title>
    <g id="物联网平台11.29" stroke="none" stroke-width="1" fill="none" fill-rule="evenodd">
        <g id="console设计规范" transform="translate(-741.000000, -488.000000)">
            <g id="编组" transform="translate(741.000000, 488.000000)">
                <rect id="矩形" x="0" y="0" width="24" height="24"></rect>
                <path d="M12,2 C6.486,2 2,6.486 2,12 C2,17.514 6.486,22 12,22 C17.514,22 22,17.514 22,12 C22,6.486 17.514,2 12,2" id="Path" fill="#F5F5F8" fill-rule="nonzero"></path>
                <path d="M14.707,9.293 C14.316,8.902 13.684,8.902 13.293,9.293 L12,10.586 L10.707,9.293 C10.316,8.902 9.684,8.902 9.293,9.293 C8.902,9.684 8.902,10.316 9.293,10.707 L10.586,12 L9.293,13.293 C8.902,13.684 8.902,14.316 9.293,14.707 C9.488,14.902 9.744,15 10,15 C10.256,15 10.512,14.902 10.707,14.707 L12,13.414 L13.293,14.707 C13.488,14.902 13.744,15 14,15 C14.256,15 14.512,14.902 14.707,14.707 C15.098,14.316 15.098,13.684 14.707,13.293 L13.414,12 L14.707,10.707 C15.098,10.316 15.098,9.684 14.707,9.293" id="Path" fill="#858597" fill-rule="nonzero"></path>
            </g>
        </g>
    </g>
</svg>