<?xml version="1.0" encoding="UTF-8"?>
<svg width="40px" height="40px" viewBox="0 0 40 40" version="1.1" xmlns="http://www.w3.org/2000/svg"
    xmlns:xlink="http://www.w3.org/1999/xlink">
    <title>编组 9</title>
    <defs>
        <path
            d="M18.8416667,18.8 C19.4983333,18.1733333 20.5366667,18.1783333 21.1783333,18.8216667 L21.1783333,18.8216667 L26.1783333,23.8216667 C26.83,24.4733333 26.83,25.5266667 26.1783333,26.1783333 C25.8533333,26.5033333 25.4266667,26.6666667 25,26.6666667 C24.5733333,26.6666667 24.1466667,26.5033333 23.8216667,26.1783333 L23.8216667,26.1783333 L21.6666667,24.0233333 L21.6666667,33.3333333 C21.6666667,34.255 20.92,35 20,35 C19.08,35 18.3333333,34.255 18.3333333,33.3333333 L18.3333333,33.3333333 L18.3333333,23.9266667 L16.1583333,26.0266667 C15.4966667,26.6683333 14.4416667,26.6466667 13.8016667,25.985 C13.1616667,25.3216667 13.18,24.2683333 13.8416667,23.6283333 L13.8416667,23.6283333 Z M19.9996667,4.99983333 C24.3013333,4.99983333 28.0913333,7.76816667 29.458,11.7415 C33.523,12.2931667 36.6663333,15.7865 36.6663333,19.9998333 C36.6663333,22.0348333 35.9263333,23.9931667 34.583,25.5148333 C34.253,25.8865 33.7946667,26.0783754 33.333,26.0783754 C32.9413333,26.0783754 32.548,25.9415 32.2296667,25.6615 C31.5413333,25.0498333 31.4746667,23.9981667 32.0846667,23.3065 C32.8896667,22.3965 33.333,21.2198333 33.333,19.9998333 C33.333,17.2431667 31.0896667,14.9998333 28.333,14.9998333 L28.333,14.9998333 L28.1663333,14.9998333 C27.373,14.9998333 26.6896667,14.4398333 26.533,13.6615 C25.9096667,10.5748333 23.163,8.33316667 19.9996667,8.33316667 C16.838,8.33316667 14.0896667,10.5748333 13.468,13.6615 C13.3113333,14.4398333 12.6263333,14.9998333 11.833,14.9998333 L11.833,14.9998333 L11.6663333,14.9998333 C8.90966667,14.9998333 6.66633333,17.2431667 6.66633333,19.9998333 C6.66633333,21.2198333 7.10966667,22.3965 7.91633333,23.3065 C8.52466667,23.9981667 8.45966667,25.0498333 7.76966667,25.6615 C7.07966667,26.2715 6.02633333,26.2031667 5.418,25.5148333 C4.073,23.9931667 3.333,22.0348333 3.333,19.9998333 C3.333,15.7865 6.47633333,12.2931667 10.5413333,11.7415 C11.9096667,7.76816667 15.6996667,4.99983333 19.9996667,4.99983333 Z"
            id="path-1"></path>
    </defs>
    <g id="quasar-custom-svg" stroke="none" stroke-width="1" fill="none" fill-rule="evenodd">
        <g id="eSIM-List（CSV-import）" transform="translate(-827.000000, -318.000000)">
            <g id="编组-11" transform="translate(270.000000, 124.000000)">
                <g id="编组-9" transform="translate(187.000000, 144.000000)">
                    <g id="编组" transform="translate(370.000000, 50.000000)">
                        <rect id="矩形" x="0" y="0" width="40" height="40"></rect>
                        <mask id="mask-2" fill="white">
                            <use xlink:href="#path-1"></use>
                        </mask>
                        <use id="🎨-Icon-color" fill="#5569D4" xlink:href="#path-1"></use>
                    </g>
                </g>
            </g>
        </g>
    </g>
</svg>